<svg width="40" height="40" viewBox="0 0 40 40" fill="none" xmlns="http://www.w3.org/2000/svg">
<path d="M21.2116 6.14497C21.362 5.98585 21.4796 5.79867 21.5576 5.59413C21.6356 5.38958 21.6726 5.17166 21.6664 4.95283C21.6602 4.73399 21.611 4.51852 21.5215 4.31871C21.432 4.1189 21.3041 3.93866 21.145 3.7883C20.9859 3.63794 20.7987 3.52039 20.5941 3.44236C20.3896 3.36434 20.1717 3.32736 19.9528 3.33355C19.734 3.33974 19.5185 3.38898 19.3187 3.47844C19.1189 3.56791 18.9387 3.69585 18.7883 3.85497L4.62165 18.855C4.32909 19.1644 4.16608 19.5741 4.16608 20C4.16608 20.4258 4.32909 20.8355 4.62165 21.145L18.7883 36.1466C18.9377 36.3092 19.1179 36.4405 19.3184 36.5329C19.519 36.6253 19.7359 36.6769 19.9565 36.6847C20.1772 36.6926 20.3972 36.6565 20.6038 36.5786C20.8104 36.5007 20.9994 36.3825 21.16 36.2309C21.3205 36.0793 21.4493 35.8973 21.5389 35.6955C21.6285 35.4937 21.6772 35.2762 21.682 35.0554C21.6868 34.8347 21.6477 34.6152 21.5669 34.4097C21.4862 34.2042 21.3654 34.0167 21.2116 33.8583L8.12498 20L21.2116 6.14497Z" fill="#6B717A"/>
</svg>
