<svg width="40" height="40" viewBox="0 0 40 40" fill="none" xmlns="http://www.w3.org/2000/svg">
<path d="M18.7883 6.14497C18.6379 5.98585 18.5204 5.79867 18.4424 5.59413C18.3643 5.38958 18.3274 5.17166 18.3335 4.95283C18.3397 4.73399 18.389 4.51852 18.4784 4.31871C18.5679 4.1189 18.6958 3.93866 18.855 3.7883C19.0141 3.63794 19.2013 3.52039 19.4058 3.44236C19.6103 3.36434 19.8283 3.32736 20.0471 3.33355C20.2659 3.33974 20.4814 3.38898 20.6812 3.47844C20.881 3.56791 21.0613 3.69585 21.2116 3.85497L35.3783 18.855C35.6709 19.1644 35.8339 19.5741 35.8339 20C35.8339 20.4258 35.6709 20.8355 35.3783 21.145L21.2116 36.1466C21.0623 36.3092 20.8821 36.4405 20.6815 36.5329C20.481 36.6253 20.2641 36.6769 20.0434 36.6847C19.8228 36.6926 19.6027 36.6565 19.3961 36.5786C19.1896 36.5007 19.0005 36.3825 18.84 36.2309C18.6794 36.0793 18.5506 35.8973 18.461 35.6955C18.3714 35.4937 18.3228 35.2762 18.318 35.0554C18.3132 34.8347 18.3523 34.6152 18.433 34.4097C18.5137 34.2042 18.6345 34.0167 18.7883 33.8583L31.875 20L18.7883 6.14497Z" fill="#6B717A"/>
</svg>
