<svg width="40" height="40" viewBox="0 0 40 40" fill="none" xmlns="http://www.w3.org/2000/svg">
<path d="M20 3.33331C17.8113 3.33331 15.6441 3.76441 13.622 4.60199C11.5999 5.43957 9.76257 6.66722 8.21493 8.21487C5.08932 11.3405 3.33337 15.5797 3.33337 20C3.33337 24.4203 5.08932 28.6595 8.21493 31.7851C9.76257 33.3327 11.5999 34.5604 13.622 35.398C15.6441 36.2355 17.8113 36.6666 20 36.6666C24.4203 36.6666 28.6595 34.9107 31.7852 31.7851C34.9108 28.6595 36.6667 24.4203 36.6667 20C36.6667 17.8113 36.2356 15.644 35.398 13.6219C34.5605 11.5998 33.3328 9.76251 31.7852 8.21487C30.2375 6.66722 28.4002 5.43957 26.3781 4.60199C24.356 3.76441 22.1887 3.33331 20 3.33331ZM27 27L18.3334 21.6666V11.6666H20.8334V20.3333L28.3334 24.8333L27 27Z" fill="#121A44"/>
</svg>
