<svg width="39" height="35" viewBox="0 0 39 35" fill="none" xmlns="http://www.w3.org/2000/svg">
<path d="M35.25 4.16667H5.25C3.1875 4.16667 1.51875 5.85716 1.51875 7.92331L1.5 30.4632C1.5 32.5293 3.1875 34.2198 5.25 34.2198H35.25C37.3125 34.2198 39 32.5293 39 30.4632V7.92331C39 5.85716 37.3125 4.16667 35.25 4.16667ZM34.5 12.1495L21.2437 20.4517C20.6437 20.8274 19.8563 20.8274 19.2563 20.4517L6 12.1495C5.81199 12.0438 5.64735 11.901 5.51604 11.7296C5.38473 11.5583 5.28949 11.3621 5.23608 11.1528C5.18267 10.9436 5.17219 10.7256 5.20529 10.5122C5.23839 10.2988 5.31438 10.0943 5.42865 9.91114C5.54293 9.72798 5.69311 9.56995 5.87011 9.44662C6.04712 9.32329 6.24726 9.23722 6.45843 9.19362C6.6696 9.15002 6.88741 9.14979 7.09867 9.19296C7.30992 9.23613 7.51024 9.32178 7.6875 9.44475L20.25 17.3149L32.8125 9.44475C32.9898 9.32178 33.1901 9.23613 33.4013 9.19296C33.6126 9.14979 33.8304 9.15002 34.0416 9.19362C34.2527 9.23722 34.4529 9.32329 34.6299 9.44662C34.8069 9.56995 34.9571 9.72798 35.0713 9.91114C35.1856 10.0943 35.2616 10.2988 35.2947 10.5122C35.3278 10.7256 35.3173 10.9436 35.2639 11.1528C35.2105 11.3621 35.1153 11.5583 34.984 11.7296C34.8527 11.901 34.688 12.0438 34.5 12.1495Z" fill="#121A44"/>
</svg>
