<svg width="41" height="41" viewBox="0 0 41 41" fill="none" xmlns="http://www.w3.org/2000/svg">
<circle cx="20.266" cy="20.4137" r="19.5" fill="#121A44" stroke="black"/>
<path d="M28.0407 27.5626C26.8508 25.5055 25.0172 24.0305 22.8774 23.3313C23.9358 22.7012 24.7582 21.741 25.2182 20.5983C25.6781 19.4556 25.7503 18.1935 25.4235 17.0058C25.0968 15.8181 24.3892 14.7705 23.4094 14.0239C22.4296 13.2773 21.2318 12.8729 20 12.8729C18.7682 12.8729 17.5704 13.2773 16.5907 14.0239C15.6109 14.7705 14.9033 15.8181 14.5765 17.0058C14.2498 18.1935 14.3219 19.4556 14.7819 20.5983C15.2419 21.741 16.0642 22.7012 17.1227 23.3313C14.9828 24.0297 13.1492 25.5047 11.9594 27.5626C11.9158 27.6337 11.8868 27.7129 11.8743 27.7954C11.8617 27.8779 11.8659 27.9621 11.8864 28.043C11.9069 28.1239 11.9434 28.1998 11.9938 28.2664C12.0441 28.333 12.1073 28.3888 12.1796 28.4305C12.2519 28.4722 12.3318 28.4991 12.4146 28.5095C12.4974 28.5198 12.5814 28.5135 12.6618 28.4909C12.7421 28.4682 12.8171 28.4297 12.8823 28.3776C12.9475 28.3255 13.0016 28.2609 13.0414 28.1876C14.5133 25.6438 17.1149 24.1251 20 24.1251C22.8852 24.1251 25.4867 25.6438 26.9586 28.1876C26.9984 28.2609 27.0526 28.3255 27.1178 28.3776C27.183 28.4297 27.258 28.4682 27.3383 28.4909C27.4186 28.5135 27.5027 28.5198 27.5855 28.5095C27.6683 28.4991 27.7482 28.4722 27.8205 28.4305C27.8927 28.3888 27.9559 28.333 28.0063 28.2664C28.0566 28.1998 28.0932 28.1239 28.1137 28.043C28.1342 27.9621 28.1383 27.8779 28.1258 27.7954C28.1132 27.7129 28.0843 27.6337 28.0407 27.5626ZM15.625 18.5001C15.625 17.6348 15.8816 16.7889 16.3623 16.0694C16.8431 15.35 17.5264 14.7892 18.3258 14.4581C19.1252 14.1269 20.0049 14.0403 20.8535 14.2091C21.7022 14.3779 22.4818 14.7946 23.0936 15.4065C23.7055 16.0183 24.1222 16.7979 24.291 17.6465C24.4598 18.4952 24.3731 19.3749 24.042 20.1743C23.7109 20.9737 23.1501 21.657 22.4306 22.1377C21.7112 22.6185 20.8653 22.8751 20 22.8751C18.8401 22.8738 17.728 22.4125 16.9078 21.5923C16.0876 20.7721 15.6263 19.66 15.625 18.5001Z" fill="white"/>
</svg>
