<svg width="30" height="30" viewBox="0 0 30 30" fill="none" xmlns="http://www.w3.org/2000/svg">
<path d="M27.3399 1.13208H2.66255C1.81729 1.13208 1.13208 1.81729 1.13208 2.66255V27.3399C1.13208 28.1851 1.81729 28.8704 2.66255 28.8704H27.3399C28.1851 28.8704 28.8704 28.1851 28.8704 27.3399V2.66255C28.8704 1.81729 28.1851 1.13208 27.3399 1.13208Z" fill="#3249BD"/>
<path d="M20.2687 28.868V18.1266H23.8734L24.4125 13.9406H20.2687V11.2688C20.2687 10.0571 20.6062 9.22971 22.3429 9.22971H24.5601V5.47971C23.4865 5.36802 22.4075 5.31482 21.3281 5.32034C18.1359 5.32034 15.9375 7.26565 15.9375 10.8539V13.9406H12.3328V18.1266H15.9375V28.868H20.2687Z" fill="white"/>
</svg>
