<svg width="40" height="40" viewBox="0 0 40 40" fill="none" xmlns="http://www.w3.org/2000/svg">
<path d="M20 3.33331C10.795 3.33331 3.33331 10.795 3.33331 20C3.33331 29.205 10.795 36.6666 20 36.6666C29.205 36.6666 36.6666 29.205 36.6666 20C36.6666 10.795 29.205 3.33331 20 3.33331ZM20 33.3333L23.3333 30L25 28.3333V25H21.6666V23.3333L20 21.6666H15V26.6666L18.3333 30V33.2183C11.7666 32.3933 6.66665 26.7866 6.66665 20L8.33331 21.6666H11.6666V18.3333H15L20 13.3333V9.99998H16.6666L15 8.33331V7.64831C18.2054 6.34217 21.7946 6.34217 25 7.64831V9.99998L23.3333 11.6666V15L25 16.6666L30.2166 11.45C31.4849 12.9687 32.3992 14.7507 32.8933 16.6666H30L26.6666 20V23.3333L28.3333 25H31.6666L32.1433 25.4766C30.0483 30.1016 25.3983 33.3333 20 33.3333Z" fill="#121A44"/>
</svg>
