<svg width="43" height="40" viewBox="0 0 43 40" fill="none" xmlns="http://www.w3.org/2000/svg">
<path fill-rule="evenodd" clip-rule="evenodd" d="M30.8313 0.628586C31.1489 0.327752 31.554 0.12286 31.9951 0.0399382C32.4363 -0.0429839 32.8936 -0.000194166 33.3089 0.162872L39.7436 2.68287C40.2985 2.89927 40.74 3.31456 40.9713 3.83777C41.2026 4.36098 41.205 4.94945 40.9779 5.4743L38.3489 11.5514C38.1791 11.9439 37.8898 12.2799 37.5177 12.517C37.1456 12.7541 36.7074 12.8817 36.2585 12.8835C35.8097 12.8853 35.3703 12.7614 34.996 12.5273C34.6218 12.2933 34.3294 11.9596 34.156 11.5686L33.1184 9.22573L6.98659 19.7714C6.71247 19.8821 6.41795 19.9407 6.11985 19.9439C5.82174 19.9471 5.52589 19.8948 5.24919 19.79C4.97249 19.6852 4.72035 19.53 4.50717 19.3331C4.294 19.1363 4.12396 18.9018 4.00676 18.6429C3.88956 18.384 3.82751 18.1058 3.82413 17.8243C3.82076 17.5427 3.87613 17.2633 3.98709 17.002C4.09806 16.7407 4.26243 16.5025 4.47084 16.3012C4.67924 16.0999 4.9276 15.9393 5.20172 15.8286L31.3668 5.27144L30.3473 2.97144C30.1728 2.57962 30.1257 2.14765 30.2119 1.73047C30.2981 1.31328 30.5137 0.929731 30.8313 0.628586ZM39.1597 15.6572C39.962 15.6572 40.7315 15.9582 41.2988 16.494C41.8662 17.0298 42.1849 17.7565 42.1849 18.5143V38.5143C42.1849 38.8932 42.0255 39.2565 41.7419 39.5245C41.4582 39.7924 41.0735 39.9429 40.6723 39.9429H33.1093C32.7081 39.9429 32.3234 39.7924 32.0397 39.5245C31.756 39.2565 31.5967 38.8932 31.5967 38.5143V18.5143C31.5967 17.7565 31.9154 17.0298 32.4827 16.494C33.0501 15.9582 33.8195 15.6572 34.6219 15.6572H39.1597ZM26.1725 20.7772C25.6048 20.2423 24.8355 19.9423 24.0336 19.9429H19.4958C18.6935 19.9429 17.924 20.2439 17.3567 20.7797C16.7894 21.3155 16.4706 22.0423 16.4706 22.8V38.5143C16.4706 38.8932 16.63 39.2565 16.9137 39.5245C17.1973 39.7924 17.5821 39.9429 17.9832 39.9429H25.5463C25.9474 39.9429 26.3322 39.7924 26.6158 39.5245C26.8995 39.2565 27.0589 38.8932 27.0589 38.5143V22.8C27.0592 22.4244 26.981 22.0523 26.8289 21.7052C26.6769 21.3581 26.4538 21.0427 26.1725 20.7772ZM8.9076 24.2286C9.70994 24.2286 10.4794 24.5296 11.0467 25.0654C11.6141 25.6012 11.9328 26.328 11.9328 27.0857V38.5143C11.9328 38.8932 11.7734 39.2565 11.4898 39.5245C11.2061 39.7924 10.8214 39.9429 10.4202 39.9429H2.85718C2.45601 39.9429 2.07127 39.7924 1.78761 39.5245C1.50394 39.2565 1.34457 38.8932 1.34457 38.5143V27.0857C1.34457 26.328 1.6633 25.6012 2.23064 25.0654C2.79797 24.5296 3.56745 24.2286 4.36978 24.2286H8.9076Z" fill="#121A44"/>
</svg>
