<svg width="50" height="50" viewBox="0 0 50 50" fill="none" xmlns="http://www.w3.org/2000/svg">
<path d="M25 23.9584C23.6187 23.9584 22.2939 23.4096 21.3172 22.4329C20.3404 21.4561 19.7917 20.1314 19.7917 18.75C19.7917 17.3687 20.3404 16.0439 21.3172 15.0672C22.2939 14.0904 23.6187 13.5417 25 13.5417C26.3814 13.5417 27.7061 14.0904 28.6829 15.0672C29.6596 16.0439 30.2084 17.3687 30.2084 18.75C30.2084 19.434 30.0736 20.1113 29.8119 20.7432C29.5501 21.3751 29.1665 21.9492 28.6829 22.4329C28.1992 22.9165 27.6251 23.3002 26.9932 23.5619C26.3613 23.8236 25.684 23.9584 25 23.9584ZM25 4.16669C21.1323 4.16669 17.423 5.70314 14.688 8.43805C11.9531 11.173 10.4167 14.8823 10.4167 18.75C10.4167 29.6875 25 45.8334 25 45.8334C25 45.8334 39.5834 29.6875 39.5834 18.75C39.5834 14.8823 38.0469 11.173 35.312 8.43805C32.5771 5.70314 28.8678 4.16669 25 4.16669Z" fill="#121A44"/>
</svg>
