<svg width="40" height="41" viewBox="0 0 40 41" fill="none" xmlns="http://www.w3.org/2000/svg">
<circle cx="20" cy="20.4137" r="19.5" fill="#121A44" stroke="black"/>
<path d="M26 26.6667V18.3334H16V26.6667H26ZM26 16.6667C26.442 16.6667 26.8659 16.8423 27.1785 17.1549C27.4911 17.4674 27.6666 17.8913 27.6666 18.3334V26.6667C27.6666 27.1087 27.4911 27.5327 27.1785 27.8452C26.8659 28.1578 26.442 28.3334 26 28.3334H16C15.558 28.3334 15.134 28.1578 14.8215 27.8452C14.5089 27.5327 14.3333 27.1087 14.3333 26.6667V18.3334C14.3333 17.8913 14.5089 17.4674 14.8215 17.1549C15.134 16.8423 15.558 16.6667 16 16.6667H23.5V15C23.5 14.337 23.2366 13.7011 22.7677 13.2323C22.2989 12.7634 21.663 12.5 21 12.5C20.3369 12.5 19.7011 12.7634 19.2322 13.2323C18.7634 13.7011 18.5 14.337 18.5 15H16.8333C16.8333 13.895 17.2723 12.8352 18.0537 12.0538C18.8351 11.2724 19.8949 10.8334 21 10.8334C21.5472 10.8334 22.089 10.9411 22.5945 11.1505C23.1 11.3599 23.5593 11.6669 23.9463 12.0538C24.3332 12.4407 24.6401 12.9 24.8495 13.4055C25.0589 13.911 25.1666 14.4529 25.1666 15V16.6667H26ZM21 24.1667C20.558 24.1667 20.134 23.9911 19.8215 23.6786C19.5089 23.366 19.3333 22.9421 19.3333 22.5C19.3333 22.058 19.5089 21.6341 19.8215 21.3215C20.134 21.009 20.558 20.8334 21 20.8334C21.442 20.8334 21.8659 21.009 22.1785 21.3215C22.4911 21.6341 22.6666 22.058 22.6666 22.5C22.6666 22.9421 22.4911 23.366 22.1785 23.6786C21.8659 23.9911 21.442 24.1667 21 24.1667Z" fill="white"/>
</svg>
