<svg width="50" height="50" viewBox="0 0 50 50" fill="none" xmlns="http://www.w3.org/2000/svg">
<path d="M10.4167 20.5417C14.417 29.2512 21.5237 36.1544 30.3458 39.9L31.7625 40.5313C33.3313 41.2298 35.0963 41.3523 36.7466 40.877C38.3968 40.4018 39.8264 39.3593 40.7833 37.9333L42.6354 35.175C42.9252 34.7424 43.0426 34.217 42.9643 33.7022C42.886 33.1874 42.6178 32.7206 42.2125 32.3938L35.9375 27.3313C35.719 27.1551 35.4671 27.0249 35.197 26.9485C34.9268 26.8721 34.6441 26.851 34.3656 26.8866C34.0872 26.9222 33.8188 27.0137 33.5766 27.1557C33.3344 27.2976 33.1234 27.487 32.9562 27.7125L31.0146 30.3313C26.0304 27.8697 21.9961 23.8346 19.5354 18.85L22.1521 16.9083C22.3776 16.7412 22.567 16.5302 22.7089 16.288C22.8508 16.0458 22.9423 15.7774 22.978 15.499C23.0136 15.2205 22.9925 14.9377 22.9161 14.6676C22.8397 14.3975 22.7095 14.1456 22.5333 13.9271L17.4708 7.65209C17.1439 7.24678 16.6771 6.97858 16.1624 6.9003C15.6476 6.82202 15.1222 6.93935 14.6896 7.22917L11.9125 9.09167C10.4779 10.0537 9.43143 11.4938 8.95947 13.1554C8.48752 14.8169 8.62074 16.5921 9.33541 18.1646L10.4167 20.5417Z" fill="#121A44"/>
</svg>
