<svg width="168" height="62" viewBox="0 0 168 62" fill="none" xmlns="http://www.w3.org/2000/svg">
<path fill-rule="evenodd" clip-rule="evenodd" d="M53.8973 31.9873H1.00124L1.0011 31.3776H53.8971L53.8973 31.9873Z" fill="white" stroke="black"/>
<path d="M113.553 30.9258C113.553 47.4912 100.24 60.9127 83.8265 60.9127C67.4132 60.9127 54.1002 47.4912 54.1002 30.9258C54.1002 14.3605 67.4132 0.938965 83.8265 0.938965C100.24 0.938965 113.553 14.3605 113.553 30.9258Z" stroke="black"/>
<path fill-rule="evenodd" clip-rule="evenodd" d="M166.641 31.9856H113.745L113.745 31.3759H166.641L166.641 31.9856Z" fill="white" stroke="black"/>
<path d="M84.1287 16.9017C86.1328 16.9017 88.0549 17.7047 89.472 19.1341C90.8892 20.5634 91.6853 22.502 91.6853 24.5235C91.6853 26.5449 90.8892 28.4835 89.472 29.9128C88.0549 31.3422 86.1328 32.1452 84.1287 32.1452C82.1246 32.1452 80.2025 31.3422 78.7854 29.9128C77.3683 28.4835 76.5721 26.5449 76.5721 24.5235C76.5721 22.502 77.3683 20.5634 78.7854 19.1341C80.2025 17.7047 82.1246 16.9017 84.1287 16.9017ZM84.1287 35.956C92.4787 35.956 99.2419 39.3668 99.2419 43.5778V47.3886H69.0156V43.5778C69.0156 39.3668 75.7787 35.956 84.1287 35.956Z" fill="#3249BD"/>
</svg>
