<svg width="315" height="67" viewBox="0 0 315 67" fill="none" xmlns="http://www.w3.org/2000/svg">
<path d="M51.5062 25.0091L32.5002 35.9964C25.2775 31.8201 20.1101 28.8321 13.4895 25.0091C5.29999 20.4708 -0.641382 26.4293 0.0555247 31.799C0.297997 29.8375 1.53284 27.4857 4.26427 26.9865C8.6368 26.1885 12.7524 29.3471 32.5002 40.9267C32.5002 40.9267 52.3011 29.282 53.7912 28.579C56.3605 27.3697 58.4319 26.5664 60.7362 26.9865C63.466 27.4857 64.7025 29.8375 64.945 31.799C65.6387 26.4293 59.6973 20.4708 51.5062 25.0091Z" fill="#CBD1F1"/>
<path d="M62.0464 30.7532C60.3379 29.6183 57.1804 29.8383 51.4466 33.3448C45.9289 36.7212 32.4998 44.7478 32.4998 44.7478C29.0893 42.5889 19.0723 36.7212 13.5546 33.3448C7.82079 29.8383 4.66326 29.6183 2.9532 30.7532C-1.72705 33.8639 1.99249 39.3744 1.99249 39.3744C0.543424 36.1423 2.62016 31.6857 8.73987 35.289C15.0245 38.9874 32.4998 49.69 32.4998 49.69C32.4998 49.69 49.9767 38.9838 56.2565 35.2855C62.3794 31.6839 64.461 36.1423 63.0071 39.3815C63.0071 39.3815 66.7282 33.8639 62.0464 30.7532Z" fill="#CBD1F1"/>
<path d="M47.1287 42.9993L45.0783 46.2766C42.8506 49.8335 43.9438 53.1161 44.4042 55.0828L54.9546 38.2305C52.6987 39.5787 49.9311 41.2693 47.1287 42.9993Z" fill="#CBD1F1"/>
<path d="M61.7086 35.7448C61.3201 35.5269 60.7292 35.5126 60.2852 35.5501L47.447 55.821C45.2205 59.3349 46.3044 62.6221 46.7419 64.5201L61.369 41.4227C63.5465 37.516 62.4039 36.1322 61.7086 35.7448Z" fill="#CBD1F1"/>
<path d="M17.8696 42.9993C15.0672 41.2693 12.3012 39.5787 10.0454 38.2305L20.5958 55.0828C21.0396 53.1753 22.1642 49.8622 19.92 46.2766L17.8696 42.9993Z" fill="#CBD1F1"/>
<path d="M4.70974 35.5501C4.2689 35.5126 3.67296 35.5269 3.28437 35.7448C2.59699 36.1322 1.45571 37.516 3.62561 41.4227L18.2565 64.5201C18.6794 62.6917 19.7945 59.3635 17.5495 55.821L4.70974 35.5501Z" fill="#CBD1F1"/>
<path d="M12.0763 20.637C15.4462 21.6502 17.6312 23.4537 18.8842 24.0549L32.5 32.1637L46.1158 24.0549C47.3737 23.4537 49.5587 21.6502 52.9238 20.637C57.31 19.3197 60.688 20.2516 62.6364 22.6315C62.6364 22.6315 57.5564 11.904 44.7218 19.9899L39.8412 22.8561C39.3549 19.219 38.7228 14.5351 38.243 11.5946H34.758C35.2913 14.7101 36.0985 20.7272 36.6237 24.7462L32.4903 27.1739L28.566 24.8753C29.1479 20.6883 30.0248 14.2893 30.3296 11.92C30.6538 9.38087 32.4676 9.52763 33.3737 9.52586C34.048 9.52586 35.7629 9.53647 37.0889 9.52586C38.5477 9.51171 39.9547 9.14924 40.9337 7.91859C42.2305 6.28304 41.6178 4.3964 41.1234 3.85181C41.1331 3.88363 40.6825 5.79679 37.4228 5.79679H32.1823C30.2729 5.79679 28.8513 6.68088 27.9679 8.16083H26.3097C22.0628 8.16083 22.0628 12.7722 22.0628 12.7722H26.7749C26.428 15.3856 25.8266 19.7512 25.3776 22.994L20.2798 19.9987C7.44527 11.904 2.36365 22.6315 2.36365 22.6315C4.31201 20.2516 7.69003 19.3197 12.0763 20.637Z" fill="#CBD1F1"/>
<path d="M23.8951 58.8401V60.7806H24.8182V62.6957H23.8951V63.2654C23.8951 65.2879 22.8876 66.5422 21.5379 66.5422H21.2801V64.6198H21.5379C21.9913 64.6198 22.575 64.3213 22.575 63.2618V54.9735H21.2727L22.575 53.0603H23.8877V56.9141H24.8108V58.8401H23.8951Z" fill="#CBD1F1"/>
<path d="M26.9154 60.6615H31.9035V62.4982H24.2278V60.665H25.567V58.8004H24.2278V56.9532H25.567V56.4068C25.567 54.4671 26.603 53.2641 28.0047 53.2641H30.9604V56.9602H31.9096V58.8074H26.9154V60.6615ZM27.924 51.9687L26.8498 50.4986L27.924 49.0164L28.9402 50.4131L29.9472 49.0164L31.0214 50.4986L29.9518 51.9687L28.9447 50.5894L27.924 51.9687ZM26.9154 56.9532H29.6151V55.1043H27.9986C27.5248 55.1043 26.9154 55.3906 26.9154 56.4068V56.9532ZM27.6573 50.4934L27.924 50.8583L28.1982 50.4934L27.924 50.1163L27.6573 50.4934ZM29.6715 50.4934L29.9472 50.8583L30.223 50.4934L29.9518 50.1215L29.6715 50.4934Z" fill="#CBD1F1"/>
<path d="M43.7272 56.7376V58.9012H34.0707V60.7115H43.7272V62.498H31.3181V60.7149H32.6998V58.9012H31.3181V57.1044H32.6998V53.5093L34.0707 51.7125V53.5093H41.3739C42.8242 53.5093 43.7272 54.8763 43.7272 56.7376ZM42.347 56.7376C42.347 56.1042 42.1334 55.2941 41.3739 55.2941H34.0707V57.1044H42.347V56.7376Z" fill="#CBD1F1"/>
<path opacity="0.3" d="M81.3579 3.13354H80.9869C79.3373 3.13354 78 3.70892 78 4.41869V64.2846C78 64.9944 79.3373 65.5697 80.9869 65.5697H81.3579C83.0075 65.5697 84.3448 64.9944 84.3448 64.2846V4.41869C84.3448 3.70892 83.0075 3.13354 81.3579 3.13354Z" fill="white"/>
<path d="M113.238 36.1245C113.681 36.1245 114.118 36.0415 114.55 35.8755C114.981 35.7205 115.363 35.4549 115.695 35.0786C116.038 34.7134 116.315 34.2319 116.525 33.6343C116.736 33.0366 116.841 32.3062 116.841 31.4429C116.841 30.5132 116.608 29.6112 116.144 28.7368C115.69 27.8625 115.114 27.0047 114.417 26.1636C113.731 25.3114 112.984 24.4702 112.176 23.6401C111.379 22.799 110.632 21.9468 109.935 21.0835C109.248 20.2091 108.673 19.3127 108.208 18.394C107.754 17.4644 107.527 16.4959 107.527 15.4888C107.527 14.4816 107.71 13.5741 108.075 12.7661C108.451 11.9471 108.955 11.2554 109.586 10.6909C110.228 10.1154 110.969 9.67269 111.811 9.36279C112.663 9.0529 113.57 8.89795 114.533 8.89795C115.562 8.89795 116.476 9.00863 117.272 9.22998C118.08 9.44027 118.761 9.73356 119.314 10.1099C119.879 10.4751 120.305 10.9123 120.593 11.4214C120.881 11.9194 121.024 12.4507 121.024 13.0151C121.024 13.2808 120.986 13.5575 120.908 13.8452C120.831 14.1219 120.709 14.3765 120.543 14.6089C120.377 14.8413 120.167 15.035 119.912 15.1899C119.658 15.3449 119.359 15.4224 119.016 15.4224C118.606 15.4224 118.302 15.3006 118.103 15.0571C117.914 14.8026 117.771 14.4927 117.671 14.1274C117.582 13.7622 117.505 13.3638 117.438 12.9321C117.372 12.4894 117.267 12.0854 117.123 11.7202C116.979 11.355 116.763 11.0506 116.476 10.8071C116.188 10.5526 115.767 10.4253 115.214 10.4253C114.915 10.4253 114.616 10.4917 114.317 10.6245C114.03 10.7573 113.764 10.9621 113.521 11.2388C113.288 11.5044 113.1 11.8475 112.956 12.2681C112.812 12.6886 112.74 13.1867 112.74 13.7622C112.74 14.4263 112.879 15.0737 113.155 15.7046C113.432 16.3354 113.797 16.9608 114.251 17.5806C114.705 18.1893 115.219 18.8035 115.795 19.4233C116.382 20.0321 116.974 20.6519 117.571 21.2827C118.18 21.9025 118.772 22.5444 119.348 23.2085C119.934 23.8615 120.454 24.5422 120.908 25.2505C121.362 25.9588 121.727 26.7004 122.004 27.4751C122.281 28.2498 122.419 29.0633 122.419 29.9155C122.419 31.1662 122.175 32.284 121.688 33.269C121.213 34.243 120.56 35.062 119.729 35.7261C118.91 36.4012 117.948 36.9159 116.841 37.27C115.734 37.6242 114.555 37.8013 113.305 37.8013C112.176 37.8013 111.174 37.6574 110.3 37.3696C109.437 37.0929 108.706 36.7222 108.108 36.2573C107.511 35.7925 107.057 35.2612 106.747 34.6636C106.448 34.077 106.299 33.4683 106.299 32.8374C106.299 32.5718 106.338 32.2896 106.415 31.9907C106.504 31.6808 106.625 31.3986 106.78 31.144C106.946 30.8895 107.151 30.6792 107.395 30.5132C107.638 30.3361 107.92 30.2476 108.241 30.2476C108.573 30.2476 108.839 30.3306 109.038 30.4966C109.248 30.6626 109.414 30.884 109.536 31.1606C109.658 31.4373 109.757 31.7528 109.835 32.1069C109.912 32.4611 109.995 32.8208 110.084 33.186C110.173 33.5513 110.283 33.911 110.416 34.2651C110.549 34.6193 110.731 34.9347 110.964 35.2114C111.196 35.4881 111.495 35.7095 111.86 35.8755C112.226 36.0415 112.685 36.1245 113.238 36.1245ZM133.044 25.1177C133.044 24.841 132.955 24.6307 132.778 24.4868C132.601 24.3429 132.374 24.271 132.098 24.271C131.71 24.271 131.34 24.3595 130.985 24.5366C130.642 24.7137 130.338 24.9738 130.072 25.3169C129.807 25.66 129.596 26.0861 129.441 26.5952C129.286 27.0933 129.209 27.6743 129.209 28.3384C129.209 28.9803 129.253 29.5116 129.342 29.9321C129.441 30.3527 129.569 30.6903 129.724 30.9448C129.89 31.1883 130.078 31.3599 130.288 31.4595C130.498 31.5591 130.72 31.6089 130.952 31.6089C131.24 31.6089 131.511 31.5369 131.766 31.3931C132.02 31.2381 132.242 31.0444 132.43 30.812C132.618 30.5796 132.767 30.3195 132.878 30.0317C132.989 29.744 133.044 29.4562 133.044 29.1685V25.1177ZM130.404 17.8462C130.028 17.8462 129.679 17.8905 129.358 17.979C129.037 18.0675 128.761 18.1782 128.528 18.311C128.296 18.4438 128.113 18.5933 127.98 18.7593C127.848 18.9142 127.781 19.0636 127.781 19.2075C127.781 19.3735 127.864 19.4953 128.03 19.5728C128.207 19.6392 128.401 19.7222 128.611 19.8218C128.822 19.9103 129.01 20.0431 129.176 20.2202C129.353 20.3862 129.441 20.6463 129.441 21.0005C129.441 21.2329 129.392 21.4487 129.292 21.6479C129.203 21.8361 129.076 22.0076 128.91 22.1626C128.755 22.3065 128.567 22.4227 128.346 22.5112C128.135 22.5887 127.914 22.6274 127.682 22.6274C127.062 22.6274 126.558 22.4172 126.171 21.9966C125.795 21.576 125.606 21.0171 125.606 20.3198C125.606 19.6447 125.784 19.0692 126.138 18.5933C126.492 18.1063 126.951 17.7078 127.516 17.3979C128.091 17.0881 128.739 16.8612 129.458 16.7173C130.177 16.5623 130.897 16.4849 131.616 16.4849C132.479 16.4849 133.304 16.5789 134.09 16.7671C134.876 16.9552 135.567 17.2541 136.165 17.6636C136.774 18.0731 137.255 18.5933 137.609 19.2241C137.975 19.855 138.157 20.6187 138.157 21.5151V30.895C138.157 30.9946 138.163 31.1053 138.174 31.2271C138.185 31.3488 138.213 31.4595 138.257 31.5591C138.301 31.6587 138.368 31.7417 138.456 31.8081C138.545 31.8745 138.672 31.9077 138.838 31.9077C139.037 31.9077 139.22 31.8358 139.386 31.6919C139.563 31.5369 139.718 31.382 139.851 31.2271L140.266 31.5757C140.1 31.8081 139.9 32.0627 139.668 32.3394C139.436 32.616 139.153 32.8761 138.821 33.1196C138.489 33.3631 138.102 33.5679 137.659 33.7339C137.216 33.8999 136.713 33.9829 136.148 33.9829C135.451 33.9829 134.831 33.7782 134.289 33.3687C133.747 32.9481 133.393 32.3062 133.227 31.4429C132.872 31.9188 132.502 32.3172 132.114 32.6382C131.738 32.9591 131.351 33.2192 130.952 33.4185C130.554 33.6177 130.15 33.7616 129.74 33.8501C129.342 33.9386 128.938 33.9829 128.528 33.9829C127.997 33.9829 127.482 33.8999 126.984 33.7339C126.486 33.5679 126.038 33.3078 125.64 32.9536C125.252 32.5884 124.937 32.118 124.693 31.5425C124.461 30.967 124.345 30.2642 124.345 29.4341C124.345 28.4269 124.544 27.6024 124.942 26.9604C125.341 26.3185 125.861 25.7817 126.503 25.3501C127.156 24.9074 127.892 24.5311 128.711 24.2212C129.541 23.9113 130.388 23.5848 131.251 23.2417C131.893 22.9871 132.358 22.6108 132.646 22.1128C132.944 21.6037 133.094 21.0835 133.094 20.5522C133.094 19.7332 132.85 19.0802 132.363 18.5933C131.887 18.0952 131.234 17.8462 130.404 17.8462ZM147.637 21.0005C148.024 20.4803 148.439 19.9546 148.882 19.4233C149.325 18.881 149.8 18.394 150.31 17.9624C150.819 17.5308 151.372 17.1766 151.97 16.8999C152.567 16.6232 153.22 16.4849 153.929 16.4849C154.56 16.4849 155.085 16.6121 155.506 16.8667C155.926 17.1102 156.264 17.409 156.519 17.7632C156.784 18.1063 156.967 18.466 157.066 18.8423C157.177 19.2186 157.232 19.5396 157.232 19.8052C157.232 20.2922 157.166 20.8013 157.033 21.3325C156.911 21.8527 156.696 22.3729 156.386 22.8931C156.087 23.4022 155.683 23.9002 155.174 24.3872C154.665 24.8631 154.023 25.3003 153.248 25.6987C154.288 27.9012 155.301 29.7993 156.286 31.3931C157.271 32.9757 158.217 34.2762 159.125 35.2944C160.044 36.3237 160.924 37.0819 161.765 37.5688C162.606 38.0558 163.408 38.2993 164.172 38.2993C164.305 38.2993 164.438 38.2827 164.57 38.2495C164.703 38.2163 164.825 38.1776 164.936 38.1333C165.057 38.089 165.185 38.0337 165.317 37.9673L165.633 38.5483C165.334 38.7144 165.03 38.8693 164.72 39.0132C164.41 39.1681 164.056 39.3009 163.657 39.4116C163.259 39.5223 162.799 39.6108 162.279 39.6772C161.759 39.7437 161.139 39.7769 160.42 39.7769C159.767 39.7769 159.119 39.6994 158.478 39.5444C157.847 39.3895 157.21 39.1128 156.568 38.7144C155.926 38.3159 155.273 37.7847 154.609 37.1206C153.956 36.4565 153.281 35.6154 152.584 34.5972C151.898 33.5789 151.189 32.367 150.459 30.9614C149.729 29.5558 148.97 27.9123 148.185 26.0308C149.247 25.245 150.083 24.52 150.691 23.856C151.3 23.1808 151.759 22.5721 152.069 22.0298C152.379 21.4875 152.573 21.006 152.65 20.5854C152.728 20.1649 152.767 19.8052 152.767 19.5063C152.767 19.4621 152.761 19.3901 152.75 19.2905C152.739 19.1799 152.7 19.0747 152.634 18.9751C152.578 18.8755 152.49 18.7869 152.368 18.7095C152.257 18.632 152.097 18.5933 151.887 18.5933C151.477 18.5933 151.062 18.7703 150.642 19.1245C150.221 19.4676 149.817 19.8993 149.43 20.4194C149.053 20.9285 148.71 21.4819 148.4 22.0796C148.09 22.6662 147.836 23.203 147.637 23.6899V32.2563C147.637 32.4002 147.609 32.5718 147.554 32.771C147.509 32.9702 147.393 33.1584 147.205 33.3354C147.028 33.5125 146.762 33.6619 146.408 33.7837C146.065 33.9165 145.6 33.9829 145.014 33.9829C144.427 33.9829 143.968 33.911 143.636 33.7671C143.304 33.6343 143.055 33.4738 142.889 33.2856C142.734 33.0975 142.634 32.9038 142.59 32.7046C142.557 32.5054 142.54 32.3449 142.54 32.2231V10.8071C142.54 10.4862 142.463 10.2095 142.308 9.97705C142.164 9.73356 141.915 9.61182 141.561 9.61182C141.372 9.61182 141.206 9.64502 141.062 9.71143C140.93 9.76676 140.786 9.85531 140.631 9.97705L140.299 9.57861C140.553 9.36833 140.836 9.16357 141.146 8.96436C141.455 8.75407 141.793 8.57145 142.158 8.4165C142.535 8.26156 142.933 8.13428 143.354 8.03467C143.774 7.93506 144.217 7.88525 144.682 7.88525C145.401 7.88525 145.96 7.98486 146.358 8.18408C146.757 8.37223 147.05 8.61019 147.238 8.89795C147.426 9.17464 147.537 9.47347 147.57 9.79443C147.615 10.1043 147.637 10.381 147.637 10.6245V21.0005ZM164.521 26.0972C164.521 26.4513 164.57 26.8387 164.67 27.2593C164.781 27.6688 164.936 28.0838 165.135 28.5044C165.334 28.925 165.577 29.3289 165.865 29.7163C166.164 30.0926 166.502 30.4302 166.878 30.729C167.265 31.0278 167.691 31.2658 168.156 31.4429C168.621 31.62 169.13 31.7085 169.684 31.7085C170.071 31.7085 170.431 31.6642 170.763 31.5757C171.095 31.4871 171.405 31.3654 171.692 31.2104C171.98 31.0555 172.257 30.8784 172.522 30.6792C172.788 30.4689 173.054 30.2476 173.319 30.0151L173.734 30.4136C173.48 30.7567 173.153 31.133 172.755 31.5425C172.356 31.952 171.875 32.3394 171.311 32.7046C170.746 33.0588 170.088 33.3576 169.335 33.6011C168.582 33.8335 167.725 33.9497 166.762 33.9497C165.799 33.9497 164.858 33.7782 163.939 33.4351C163.032 33.0809 162.224 32.5552 161.516 31.8579C160.807 31.1606 160.237 30.2918 159.806 29.2515C159.385 28.2111 159.175 26.9937 159.175 25.5991C159.175 24.592 159.302 23.6678 159.557 22.8267C159.811 21.9855 160.154 21.2274 160.586 20.5522C161.029 19.8771 161.538 19.285 162.113 18.7759C162.7 18.2668 163.314 17.8462 163.956 17.5142C164.598 17.1711 165.251 16.9165 165.915 16.7505C166.59 16.5734 167.238 16.4849 167.857 16.4849C168.676 16.4849 169.39 16.5734 169.999 16.7505C170.608 16.9276 171.111 17.1655 171.51 17.4644C171.919 17.7632 172.224 18.1118 172.423 18.5103C172.622 18.8976 172.722 19.3071 172.722 19.7388C172.722 20.259 172.572 20.7293 172.273 21.1499C171.975 21.5594 171.576 21.9191 171.078 22.229L164.521 26.0972ZM167.857 22.7271C168.001 22.6385 168.118 22.5555 168.206 22.478C168.306 22.3895 168.383 22.2899 168.438 22.1792C168.494 22.0575 168.533 21.9136 168.555 21.7476C168.588 21.5705 168.604 21.3547 168.604 21.1001C168.604 20.8234 168.571 20.519 168.505 20.187C168.45 19.8439 168.35 19.5229 168.206 19.2241C168.062 18.9253 167.88 18.6763 167.658 18.4771C167.437 18.2778 167.171 18.1782 166.861 18.1782C166.463 18.1782 166.12 18.3 165.832 18.5435C165.555 18.7759 165.323 19.0802 165.135 19.4565C164.958 19.8328 164.814 20.2645 164.703 20.7515C164.604 21.2274 164.526 21.7088 164.471 22.1958C164.415 22.6828 164.382 23.1532 164.371 23.6069C164.36 24.0496 164.354 24.4259 164.354 24.7358L167.857 22.7271ZM181.271 19.9878C181.692 19.3459 182.14 18.7648 182.616 18.2446C182.815 18.0233 183.031 17.8075 183.264 17.5972C183.496 17.3869 183.734 17.1987 183.978 17.0327C184.232 16.8667 184.492 16.7339 184.758 16.6343C185.023 16.5347 185.289 16.4849 185.555 16.4849C186.119 16.4849 186.562 16.6564 186.883 16.9995C187.204 17.3315 187.364 17.8019 187.364 18.4106C187.364 18.7869 187.331 19.1522 187.265 19.5063C187.209 19.8494 187.093 20.27 186.916 20.7681H186.451C186.385 20.425 186.23 20.1427 185.986 19.9214C185.743 19.689 185.389 19.5728 184.924 19.5728C184.581 19.5728 184.243 19.6392 183.911 19.772C183.579 19.8937 183.253 20.0487 182.932 20.2368C182.622 20.425 182.323 20.6297 182.035 20.8511C181.758 21.0724 181.504 21.2827 181.271 21.4819V32.2563C181.271 32.4002 181.249 32.5718 181.205 32.771C181.161 32.9702 181.05 33.1584 180.873 33.3354C180.707 33.5125 180.452 33.6619 180.109 33.7837C179.777 33.9165 179.318 33.9829 178.731 33.9829C178.145 33.9829 177.68 33.911 177.337 33.7671C177.005 33.6343 176.75 33.4738 176.573 33.2856C176.396 33.0975 176.285 32.9038 176.241 32.7046C176.197 32.5054 176.175 32.3449 176.175 32.2231V19.4067C176.175 19.0858 176.097 18.8091 175.942 18.5767C175.799 18.3332 175.549 18.2114 175.195 18.2114C175.007 18.2114 174.847 18.2446 174.714 18.311C174.581 18.3774 174.437 18.4715 174.282 18.5933L173.934 18.1782C174.188 17.9679 174.47 17.7632 174.78 17.564C175.101 17.3537 175.444 17.1711 175.81 17.0161C176.175 16.8612 176.568 16.7339 176.988 16.6343C177.409 16.5347 177.852 16.4849 178.316 16.4849C178.792 16.4849 179.196 16.5513 179.528 16.6841C179.871 16.8058 180.148 16.9718 180.358 17.1821C180.58 17.3813 180.751 17.6082 180.873 17.8628C180.995 18.1174 181.083 18.3774 181.139 18.6431C181.205 18.8976 181.244 19.1466 181.255 19.3901C181.266 19.6226 181.271 19.8218 181.271 19.9878ZM205.792 14.1606C205.792 14.548 205.853 14.869 205.975 15.1235C206.096 15.367 206.246 15.5773 206.423 15.7544C206.611 15.9204 206.81 16.0588 207.021 16.1694C207.231 16.2801 207.424 16.3963 207.602 16.5181C207.79 16.6398 207.945 16.7782 208.066 16.9331C208.188 17.0881 208.249 17.2873 208.249 17.5308C208.249 17.9403 208.105 18.2557 207.817 18.4771C207.53 18.6873 207.198 18.7925 206.821 18.7925C206.467 18.7925 206.135 18.6818 205.825 18.4604C205.526 18.2391 205.261 17.9403 205.028 17.564C204.807 17.1766 204.63 16.7284 204.497 16.2192C204.364 15.6991 204.298 15.1512 204.298 14.5757C204.298 13.8674 204.409 13.1922 204.63 12.5503C204.851 11.8973 205.178 11.3273 205.609 10.8403C206.041 10.3423 206.572 9.94938 207.203 9.66162C207.845 9.37386 208.576 9.22998 209.395 9.22998C209.948 9.22998 210.551 9.32406 211.204 9.51221C211.857 9.68929 212.505 9.97705 213.146 10.3755C213.799 10.7739 214.425 11.2886 215.022 11.9194C215.631 12.5503 216.168 13.3195 216.633 14.2271C217.109 15.1346 217.485 16.186 217.762 17.3813C218.038 18.5767 218.177 19.9325 218.177 21.4487C218.177 23.4077 217.883 25.1619 217.297 26.7114C216.721 28.2609 215.936 29.578 214.939 30.6626C213.954 31.7362 212.809 32.5607 211.503 33.1362C210.197 33.7007 208.813 33.9829 207.353 33.9829C205.903 33.9829 204.519 33.7339 203.202 33.2358C201.885 32.7378 200.723 31.9797 199.716 30.9614C198.72 29.9321 197.923 28.6317 197.325 27.0601C196.739 25.4774 196.445 23.6069 196.445 21.4487C196.445 19.7775 196.667 18.2557 197.109 16.8833C197.563 15.5109 198.166 14.2935 198.919 13.231C199.683 12.1685 200.568 11.2775 201.575 10.5581C202.582 9.82764 203.65 9.27425 204.779 8.89795L205.344 9.61182C205.023 9.93278 204.724 10.2648 204.447 10.6079C204.171 10.951 203.916 11.3439 203.684 11.7866C203.451 12.2183 203.241 12.7218 203.053 13.2974C202.876 13.8618 202.726 14.5314 202.604 15.3062C202.483 16.0698 202.389 16.9552 202.322 17.9624C202.256 18.9696 202.223 20.1317 202.223 21.4487C202.223 23.1532 202.311 24.6086 202.488 25.8149C202.676 27.0213 202.914 28.034 203.202 28.853C203.501 29.661 203.833 30.3084 204.198 30.7954C204.575 31.2713 204.951 31.631 205.327 31.8745C205.703 32.118 206.069 32.2785 206.423 32.356C206.777 32.4224 207.087 32.4556 207.353 32.4556C207.618 32.4556 207.923 32.4224 208.266 32.356C208.62 32.2785 208.979 32.118 209.345 31.8745C209.721 31.631 210.092 31.2713 210.457 30.7954C210.822 30.3084 211.143 29.661 211.42 28.853C211.708 28.034 211.94 27.0213 212.117 25.8149C212.294 24.6086 212.383 23.1532 212.383 21.4487C212.383 19.9546 212.316 18.6541 212.184 17.5474C212.051 16.4406 211.874 15.4943 211.652 14.7085C211.442 13.9227 211.193 13.2808 210.905 12.7827C210.629 12.2736 210.335 11.8752 210.025 11.5874C209.727 11.2886 209.422 11.0838 209.112 10.9731C208.813 10.8625 208.537 10.8071 208.282 10.8071C207.884 10.8071 207.53 10.9012 207.22 11.0894C206.91 11.2775 206.65 11.5321 206.439 11.853C206.229 12.1629 206.069 12.5226 205.958 12.9321C205.847 13.3306 205.792 13.7401 205.792 14.1606ZM227.009 17.9126V30.1812C227.009 30.7677 227.119 31.1772 227.341 31.4097C227.562 31.631 227.867 31.7417 228.254 31.7417C228.553 31.7417 228.818 31.6587 229.051 31.4927C229.283 31.3267 229.482 31.1385 229.648 30.9282C229.848 30.6958 230.019 30.4246 230.163 30.1147L230.678 30.3472C230.512 30.7013 230.312 31.0887 230.08 31.5093C229.859 31.9299 229.56 32.3228 229.184 32.688C228.807 33.0422 228.331 33.341 227.756 33.5845C227.191 33.828 226.478 33.9497 225.614 33.9497C225.127 33.9497 224.657 33.8778 224.203 33.7339C223.76 33.59 223.362 33.3631 223.008 33.0532C222.665 32.7433 222.388 32.356 222.178 31.8911C221.967 31.4263 221.862 30.8674 221.862 30.2144V17.9126H220.003V16.7173C220.313 16.7173 220.744 16.6398 221.298 16.4849C221.851 16.3188 222.416 16.0477 222.991 15.6714C223.578 15.2951 224.12 14.7915 224.618 14.1606C225.116 13.5298 225.47 12.7495 225.681 11.8198H227.009V16.7173H229.715C230.6 16.7173 231.043 16.5679 231.043 16.269C231.043 16.1584 230.988 16.0864 230.877 16.0532C230.766 16.009 230.639 15.9591 230.495 15.9038C230.362 15.8374 230.241 15.7489 230.13 15.6382C230.019 15.5275 229.964 15.3449 229.964 15.0903C229.964 14.7804 230.058 14.5369 230.246 14.3599C230.445 14.1828 230.7 14.0942 231.01 14.0942C231.209 14.0942 231.381 14.1385 231.524 14.2271C231.679 14.3045 231.807 14.4152 231.906 14.5591C232.006 14.6919 232.078 14.8468 232.122 15.0239C232.177 15.201 232.205 15.3781 232.205 15.5552C232.205 16.2746 231.995 16.8501 231.574 17.2817C231.165 17.7023 230.501 17.9126 229.582 17.9126H227.009ZM238.215 19.6392C238.624 19.0526 239.089 18.5269 239.609 18.062C239.82 17.8628 240.052 17.6691 240.307 17.481C240.572 17.2928 240.849 17.1268 241.137 16.9829C241.436 16.828 241.745 16.7062 242.066 16.6177C242.398 16.5291 242.736 16.4849 243.079 16.4849C243.821 16.4849 244.485 16.6287 245.071 16.9165C245.658 17.2043 246.15 17.6857 246.549 18.3608C246.947 19.036 247.252 19.9325 247.462 21.0503C247.672 22.1571 247.777 23.535 247.777 25.1841C247.777 26.7889 247.633 28.1834 247.346 29.3677C247.058 30.5519 246.682 31.5591 246.217 32.3892C245.752 33.2192 245.226 33.8944 244.64 34.4146C244.053 34.9458 243.461 35.3608 242.863 35.6597C242.266 35.9585 241.69 36.1632 241.137 36.2739C240.583 36.3957 240.107 36.4621 239.709 36.4731L239.543 35.7925C240.041 35.6707 240.484 35.4438 240.871 35.1118C241.258 34.7798 241.585 34.2375 241.851 33.4849C242.116 32.7212 242.315 31.6974 242.448 30.4136C242.592 29.1297 242.664 27.4751 242.664 25.4497C242.664 24.0552 242.598 22.9429 242.465 22.1128C242.343 21.2716 242.177 20.6353 241.967 20.2036C241.768 19.7609 241.535 19.4731 241.27 19.3403C241.015 19.1965 240.755 19.1245 240.489 19.1245C240.168 19.1245 239.886 19.2131 239.643 19.3901C239.399 19.5562 239.183 19.7498 238.995 19.9712C238.818 20.1925 238.663 20.4139 238.53 20.6353C238.409 20.8566 238.303 21.0226 238.215 21.1333V32.2231C238.215 32.367 238.193 32.5441 238.148 32.7544C238.104 32.9536 237.993 33.1473 237.816 33.3354C237.65 33.5125 237.396 33.6619 237.053 33.7837C236.721 33.9165 236.261 33.9829 235.675 33.9829C235.088 33.9829 234.623 33.911 234.28 33.7671C233.937 33.6343 233.677 33.4738 233.5 33.2856C233.334 33.0975 233.229 32.9038 233.185 32.7046C233.14 32.5054 233.118 32.3449 233.118 32.2231V10.8071C233.118 10.4862 233.041 10.2095 232.886 9.97705C232.742 9.73356 232.493 9.61182 232.139 9.61182C231.951 9.61182 231.785 9.64502 231.641 9.71143C231.508 9.76676 231.364 9.85531 231.209 9.97705L230.877 9.57861C231.132 9.36833 231.414 9.16357 231.724 8.96436C232.034 8.75407 232.371 8.57145 232.736 8.4165C233.113 8.26156 233.511 8.13428 233.932 8.03467C234.352 7.93506 234.795 7.88525 235.26 7.88525C235.979 7.88525 236.538 7.98486 236.937 8.18408C237.335 8.37223 237.628 8.61019 237.816 8.89795C238.005 9.17464 238.115 9.47347 238.148 9.79443C238.193 10.1043 238.215 10.381 238.215 10.6245V19.6392ZM265.392 32.2563C265.392 32.4002 265.369 32.5718 265.325 32.771C265.281 32.9702 265.17 33.1584 264.993 33.3354C264.827 33.5125 264.573 33.6619 264.229 33.7837C263.886 33.9165 263.422 33.9829 262.835 33.9829C262.248 33.9829 261.784 33.911 261.44 33.7671C261.108 33.6343 260.854 33.4738 260.677 33.2856C260.511 33.0975 260.406 32.9038 260.361 32.7046C260.317 32.5054 260.295 32.3449 260.295 32.2231V20.4858C260.295 20.3309 260.273 20.1759 260.229 20.021C260.184 19.855 260.118 19.7056 260.029 19.5728C259.941 19.4399 259.83 19.3348 259.697 19.2573C259.564 19.1688 259.41 19.1245 259.232 19.1245C258.934 19.1245 258.64 19.2131 258.353 19.3901C258.065 19.5562 257.794 19.7498 257.539 19.9712C257.296 20.1925 257.08 20.4139 256.892 20.6353C256.715 20.8566 256.587 21.0226 256.51 21.1333V32.2563C256.51 32.4002 256.488 32.5718 256.443 32.771C256.399 32.9702 256.288 33.1584 256.111 33.3354C255.945 33.5125 255.691 33.6619 255.348 33.7837C255.016 33.9165 254.556 33.9829 253.97 33.9829C253.383 33.9829 252.918 33.911 252.575 33.7671C252.243 33.6343 251.989 33.4738 251.812 33.2856C251.634 33.0975 251.524 32.9038 251.479 32.7046C251.435 32.5054 251.413 32.3449 251.413 32.2231V19.4067C251.413 19.0858 251.336 18.8091 251.181 18.5767C251.037 18.3332 250.788 18.2114 250.434 18.2114C250.245 18.2114 250.085 18.2446 249.952 18.311C249.819 18.3774 249.675 18.4715 249.521 18.5933L249.172 18.1782C249.426 17.9679 249.709 17.7632 250.019 17.564C250.34 17.3537 250.683 17.1711 251.048 17.0161C251.413 16.8612 251.806 16.7339 252.227 16.6343C252.647 16.5347 253.09 16.4849 253.555 16.4849C254.274 16.4849 254.833 16.6066 255.231 16.8501C255.63 17.0825 255.923 17.3647 256.111 17.6968C256.299 18.0288 256.41 18.3774 256.443 18.7427C256.488 19.0968 256.51 19.3957 256.51 19.6392C257.03 19.0526 257.589 18.5269 258.187 18.062C258.43 17.8628 258.696 17.6691 258.983 17.481C259.282 17.2928 259.587 17.1268 259.896 16.9829C260.206 16.828 260.527 16.7062 260.859 16.6177C261.191 16.5291 261.523 16.4849 261.855 16.4849C262.497 16.4849 263.045 16.6011 263.499 16.8335C263.953 17.0659 264.318 17.3481 264.595 17.6802C264.871 18.0011 265.071 18.3442 265.192 18.7095C265.325 19.0636 265.392 19.3735 265.392 19.6392C265.923 19.0526 266.482 18.5269 267.068 18.062C267.312 17.8628 267.577 17.6691 267.865 17.481C268.153 17.2928 268.452 17.1268 268.762 16.9829C269.083 16.828 269.404 16.7062 269.725 16.6177C270.057 16.5291 270.389 16.4849 270.721 16.4849C271.363 16.4849 271.91 16.6066 272.364 16.8501C272.818 17.0825 273.183 17.3924 273.46 17.7798C273.737 18.1672 273.936 18.6043 274.058 19.0913C274.19 19.5783 274.257 20.0653 274.257 20.5522V30.8286C274.257 30.9282 274.262 31.0389 274.273 31.1606C274.285 31.2713 274.312 31.382 274.356 31.4927C274.401 31.5923 274.467 31.6753 274.556 31.7417C274.655 31.8081 274.783 31.8413 274.938 31.8413C275.148 31.8413 275.336 31.7694 275.502 31.6255C275.668 31.4705 275.823 31.3156 275.967 31.1606L276.365 31.5093C276.21 31.7417 276.006 32.0018 275.751 32.2896C275.496 32.5662 275.192 32.8319 274.838 33.0864C274.495 33.341 274.091 33.5513 273.626 33.7173C273.172 33.8944 272.658 33.9829 272.082 33.9829C271.595 33.9829 271.169 33.9165 270.804 33.7837C270.45 33.6619 270.145 33.4959 269.891 33.2856C269.647 33.0643 269.465 32.8097 269.343 32.522C269.221 32.2231 269.16 31.9077 269.16 31.5757V20.4858C269.16 20.3309 269.138 20.1759 269.094 20.021C269.049 19.855 268.983 19.7056 268.895 19.5728C268.817 19.4399 268.712 19.3348 268.579 19.2573C268.446 19.1688 268.291 19.1245 268.114 19.1245C267.815 19.1245 267.517 19.2131 267.218 19.3901C266.93 19.5562 266.659 19.7498 266.404 19.9712C266.161 20.1925 265.951 20.4139 265.773 20.6353C265.596 20.8566 265.469 21.0226 265.392 21.1333V32.2563ZM282.923 26.0972C282.923 26.4513 282.973 26.8387 283.072 27.2593C283.183 27.6688 283.338 28.0838 283.537 28.5044C283.736 28.925 283.98 29.3289 284.268 29.7163C284.566 30.0926 284.904 30.4302 285.28 30.729C285.668 31.0278 286.094 31.2658 286.559 31.4429C287.023 31.62 287.533 31.7085 288.086 31.7085C288.473 31.7085 288.833 31.6642 289.165 31.5757C289.497 31.4871 289.807 31.3654 290.095 31.2104C290.382 31.0555 290.659 30.8784 290.925 30.6792C291.19 30.4689 291.456 30.2476 291.722 30.0151L292.137 30.4136C291.882 30.7567 291.556 31.133 291.157 31.5425C290.759 31.952 290.277 32.3394 289.713 32.7046C289.148 33.0588 288.49 33.3576 287.737 33.6011C286.985 33.8335 286.127 33.9497 285.164 33.9497C284.201 33.9497 283.26 33.7782 282.342 33.4351C281.434 33.0809 280.626 32.5552 279.918 31.8579C279.21 31.1606 278.64 30.2918 278.208 29.2515C277.787 28.2111 277.577 26.9937 277.577 25.5991C277.577 24.592 277.704 23.6678 277.959 22.8267C278.214 21.9855 278.557 21.2274 278.988 20.5522C279.431 19.8771 279.94 19.285 280.516 18.7759C281.102 18.2668 281.716 17.8462 282.358 17.5142C283 17.1711 283.653 16.9165 284.317 16.7505C284.993 16.5734 285.64 16.4849 286.26 16.4849C287.079 16.4849 287.793 16.5734 288.401 16.7505C289.01 16.9276 289.514 17.1655 289.912 17.4644C290.322 17.7632 290.626 18.1118 290.825 18.5103C291.024 18.8976 291.124 19.3071 291.124 19.7388C291.124 20.259 290.975 20.7293 290.676 21.1499C290.377 21.5594 289.979 21.9191 289.48 22.229L282.923 26.0972ZM286.26 22.7271C286.404 22.6385 286.52 22.5555 286.608 22.478C286.708 22.3895 286.785 22.2899 286.841 22.1792C286.896 22.0575 286.935 21.9136 286.957 21.7476C286.99 21.5705 287.007 21.3547 287.007 21.1001C287.007 20.8234 286.974 20.519 286.907 20.187C286.852 19.8439 286.752 19.5229 286.608 19.2241C286.465 18.9253 286.282 18.6763 286.061 18.4771C285.839 18.2778 285.574 18.1782 285.264 18.1782C284.865 18.1782 284.522 18.3 284.234 18.5435C283.958 18.7759 283.725 19.0802 283.537 19.4565C283.36 19.8328 283.216 20.2645 283.105 20.7515C283.006 21.2274 282.928 21.7088 282.873 22.1958C282.818 22.6828 282.785 23.1532 282.773 23.6069C282.762 24.0496 282.757 24.4259 282.757 24.7358L286.26 22.7271ZM304.14 25.4497C304.14 24.0552 304.073 22.9429 303.94 22.1128C303.819 21.2716 303.653 20.6353 303.442 20.2036C303.232 19.7609 303 19.4731 302.745 19.3403C302.491 19.1965 302.23 19.1245 301.965 19.1245C301.644 19.1245 301.356 19.2131 301.102 19.3901C300.858 19.5562 300.642 19.7498 300.454 19.9712C300.277 20.1925 300.122 20.4139 299.989 20.6353C299.868 20.8566 299.762 21.0226 299.674 21.1333V32.2231C299.674 32.367 299.652 32.5441 299.607 32.7544C299.563 32.9536 299.452 33.1473 299.275 33.3354C299.109 33.5125 298.855 33.6619 298.512 33.7837C298.18 33.9165 297.72 33.9829 297.134 33.9829C296.547 33.9829 296.082 33.911 295.739 33.7671C295.407 33.6343 295.153 33.4738 294.976 33.2856C294.799 33.0975 294.688 32.9038 294.644 32.7046C294.599 32.5054 294.577 32.3449 294.577 32.2231V19.4067C294.577 19.0858 294.5 18.8091 294.345 18.5767C294.201 18.3332 293.952 18.2114 293.598 18.2114C293.41 18.2114 293.249 18.2446 293.116 18.311C292.983 18.3774 292.84 18.4715 292.685 18.5933L292.336 18.1782C292.59 17.9679 292.873 17.7632 293.183 17.564C293.504 17.3537 293.847 17.1711 294.212 17.0161C294.577 16.8612 294.97 16.7339 295.391 16.6343C295.811 16.5347 296.254 16.4849 296.719 16.4849C297.438 16.4849 297.997 16.6066 298.396 16.8501C298.794 17.0825 299.087 17.3647 299.275 17.6968C299.464 18.0288 299.574 18.3774 299.607 18.7427C299.652 19.0968 299.674 19.3957 299.674 19.6392C300.083 19.0526 300.548 18.5269 301.068 18.062C301.279 17.8628 301.511 17.6691 301.766 17.481C302.031 17.2928 302.308 17.1268 302.596 16.9829C302.895 16.828 303.204 16.7062 303.525 16.6177C303.857 16.5291 304.195 16.4849 304.538 16.4849C305.291 16.4849 305.955 16.6287 306.53 16.9165C307.117 17.2043 307.609 17.6857 308.008 18.3608C308.406 19.036 308.711 19.9325 308.921 21.0503C309.131 22.1571 309.236 23.535 309.236 25.1841C309.236 26.7889 309.092 28.1834 308.805 29.3677C308.517 30.5519 308.141 31.5591 307.676 32.3892C307.211 33.2192 306.685 33.8944 306.099 34.4146C305.512 34.9458 304.92 35.3608 304.322 35.6597C303.725 35.9585 303.149 36.1632 302.596 36.2739C302.053 36.3957 301.583 36.4621 301.185 36.4731L301.002 35.7925C301.334 35.715 301.638 35.5933 301.915 35.4272C302.203 35.2612 302.463 35.0177 302.695 34.6968C302.928 34.3758 303.132 33.9718 303.31 33.4849C303.487 32.9868 303.636 32.367 303.758 31.6255C303.891 30.884 303.985 30.0096 304.04 29.0024C304.106 27.9842 304.14 26.8 304.14 25.4497Z" fill="#CBD1F1"/>
<path opacity="0.3" d="M109.68 49.1989V60.5109H106.944V49.1989H109.68ZM121.617 60.5109H118.881L114.305 53.5669V60.5109H111.569V49.1989H114.305L118.881 56.2069V49.1989H121.617V60.5109ZM131.635 49.1989V51.3749H128.563V60.5109H125.811V51.3749H122.771V49.1989H131.635ZM135.524 51.3749V53.7429H139.348V55.8069H135.524V58.3189H139.828V60.5109H132.788V49.1989H139.828V51.3749H135.524ZM147.19 60.5109L144.742 56.2389H144.118V60.5109H141.382V49.1989H146.054C146.95 49.1989 147.707 49.3535 148.326 49.6629C148.944 49.9722 149.408 50.3989 149.718 50.9429C150.027 51.4762 150.182 52.0895 150.182 52.7829C150.182 53.6042 149.952 54.3029 149.494 54.8789C149.046 55.4549 148.39 55.8495 147.526 56.0629L150.214 60.5109H147.19ZM144.118 54.3669H145.814C146.358 54.3669 146.758 54.2495 147.014 54.0149C147.27 53.7695 147.398 53.4122 147.398 52.9429C147.398 52.4949 147.264 52.1429 146.998 51.8869C146.742 51.6309 146.347 51.5029 145.814 51.5029H144.118V54.3669ZM161.601 60.5109H158.865L154.289 53.5669V60.5109H151.553V49.1989H154.289L158.865 56.2069V49.1989H161.601V60.5109ZM170.499 58.4469H166.259L165.555 60.5109H162.675L166.819 49.2789H169.971L174.115 60.5109H171.203L170.499 58.4469ZM169.795 56.3669L168.387 52.2069L166.963 56.3669H169.795ZM183.306 49.1989V51.3749H180.234V60.5109H177.482V51.3749H174.442V49.1989H183.306ZM187.196 49.1989V60.5109H184.46V49.1989H187.196ZM194.461 49.0229C195.527 49.0229 196.493 49.2735 197.357 49.7749C198.231 50.2655 198.919 50.9535 199.421 51.8389C199.922 52.7135 200.173 53.7055 200.173 54.8149C200.173 55.9242 199.917 56.9215 199.405 57.8069C198.903 58.6922 198.215 59.3855 197.341 59.8869C196.477 60.3775 195.517 60.6229 194.461 60.6229C193.405 60.6229 192.439 60.3775 191.565 59.8869C190.701 59.3855 190.013 58.6922 189.501 57.8069C188.999 56.9215 188.749 55.9242 188.749 54.8149C188.749 53.7055 188.999 52.7135 189.501 51.8389C190.013 50.9535 190.701 50.2655 191.565 49.7749C192.439 49.2735 193.405 49.0229 194.461 49.0229ZM194.461 51.5669C193.565 51.5669 192.85 51.8602 192.317 52.4469C191.794 53.0229 191.533 53.8122 191.533 54.8149C191.533 55.8069 191.794 56.5962 192.317 57.1829C192.85 57.7695 193.565 58.0629 194.461 58.0629C195.346 58.0629 196.055 57.7695 196.589 57.1829C197.122 56.5962 197.389 55.8069 197.389 54.8149C197.389 53.8229 197.122 53.0335 196.589 52.4469C196.066 51.8602 195.357 51.5669 194.461 51.5669ZM211.758 60.5109H209.022L204.446 53.5669V60.5109H201.71V49.1989H204.446L209.022 56.2069V49.1989H211.758V60.5109ZM220.655 58.4469H216.415L215.711 60.5109H212.831L216.975 49.2789H220.127L224.271 60.5109H221.359L220.655 58.4469ZM219.951 56.3669L218.543 52.2069L217.119 56.3669H219.951ZM228.071 58.4149H231.719V60.5109H225.335V49.1989H228.071V58.4149ZM244.306 49.1989V51.3749H241.234V60.5109H238.482V51.3749H235.442V49.1989H244.306ZM251.268 60.5109L248.82 56.2389H248.196V60.5109H245.46V49.1989H250.132C251.028 49.1989 251.785 49.3535 252.404 49.6629C253.022 49.9722 253.486 50.3989 253.796 50.9429C254.105 51.4762 254.26 52.0895 254.26 52.7829C254.26 53.6042 254.03 54.3029 253.572 54.8789C253.124 55.4549 252.468 55.8495 251.604 56.0629L254.292 60.5109H251.268ZM248.196 54.3669H249.892C250.436 54.3669 250.836 54.2495 251.092 54.0149C251.348 53.7695 251.476 53.4122 251.476 52.9429C251.476 52.4949 251.342 52.1429 251.076 51.8869C250.82 51.6309 250.425 51.5029 249.892 51.5029H248.196V54.3669ZM262.64 58.4469H258.4L257.696 60.5109H254.816L258.96 49.2789H262.112L266.256 60.5109H263.344L262.64 58.4469ZM261.936 56.3669L260.528 52.2069L259.104 56.3669H261.936ZM277.495 54.8309C277.495 55.9402 277.255 56.9269 276.775 57.7909C276.306 58.6442 275.623 59.3109 274.727 59.7909C273.842 60.2709 272.796 60.5109 271.591 60.5109H267.319V49.1989H271.591C272.807 49.1989 273.858 49.4335 274.743 49.9029C275.628 50.3722 276.306 51.0335 276.775 51.8869C277.255 52.7402 277.495 53.7215 277.495 54.8309ZM271.351 58.0629C272.418 58.0629 273.244 57.7802 273.831 57.2149C274.428 56.6495 274.727 55.8549 274.727 54.8309C274.727 53.8069 274.428 53.0122 273.831 52.4469C273.244 51.8815 272.418 51.5989 271.351 51.5989H270.055V58.0629H271.351ZM281.789 49.1989V60.5109H279.053V49.1989H281.789ZM293.726 60.5109H290.99L286.414 53.5669V60.5109H283.678V49.1989H286.414L290.99 56.2069V49.1989H293.726V60.5109ZM300.912 49.0869C302.331 49.0869 303.499 49.4335 304.416 50.1269C305.333 50.8202 305.904 51.7589 306.128 52.9429H303.232C303.04 52.5375 302.747 52.2175 302.352 51.9829C301.957 51.7375 301.483 51.6149 300.928 51.6149C300.064 51.6149 299.371 51.9082 298.848 52.4949C298.325 53.0709 298.064 53.8549 298.064 54.8469C298.064 55.9242 298.336 56.7509 298.88 57.3269C299.435 57.9029 300.219 58.1909 301.232 58.1909C301.883 58.1909 302.453 58.0149 302.944 57.6629C303.435 57.3002 303.781 56.7882 303.984 56.1269H300.528V54.1589H306.272V56.8629C306.059 57.5242 305.717 58.1375 305.248 58.7029C304.779 59.2682 304.176 59.7269 303.44 60.0789C302.715 60.4309 301.883 60.6069 300.944 60.6069C299.803 60.6069 298.805 60.3669 297.952 59.8869C297.099 59.3962 296.437 58.7135 295.968 57.8389C295.509 56.9642 295.28 55.9669 295.28 54.8469C295.28 53.7269 295.509 52.7295 295.968 51.8549C296.437 50.9802 297.093 50.3029 297.936 49.8229C298.789 49.3322 299.781 49.0869 300.912 49.0869Z" fill="white"/>
</svg>
